# xmcd
#
# Track frame offsets: 
#        150
#        17494
#        39007
#        60360
#        80538
#        95705
#        111319
#        135861
#        152330
#        175008
#        192754
#        208939
#        229481
#        244435
#        262645
#        280817
#        292444
#        312208
#
# Disc length: 4438 seconds
#
# Revision: 0
# Processed by: cddbd v1.5.2PL0 Copyright (c) Steve Scherf et al.
# Submitted via: ExactAudioCopy v1.0b3
#
DISCID=f2115412
DTITLE=Various Artist - Le blues autour du Zinc
DYEAR=2000
DGENRE=Blues
TTITLE0=Lucky Peterson - Deal With It
TTITLE1=Nico Wayne Toussaint - Barbara
TTITLE2=Last Call - Walk The Line
TTITLE3=D Regulators - Everybody's Cryn' Mercy
TTITLE4=Al Copley - Everything's Gonna Be Alright
TTITLE5=Arthur Adams - Who Does she Think She Is
TTITLE6=Danilo Perez - Love In 5
TTITLE7=Aynsley Lister - Soundman
TTITLE8=Les Marvellous Pig Noise - Ma Muse Est Le Blues
TTITLE9=Calvin Jackson - It's gonna Rain
TTITLE10=The Blues O Matics - Hipshakin' man
TTITLE11=The  Honeyman - Doo The Doo - Low Trick
TTITLE12=Only Blues Band - Shake, Rattle And Roll
TTITLE13=Greg Szalapczynski - Pour Le Meilleur
TTITLE14=Miguel M. and Brachay's Blues Band - BBB Shuffle
TTITLE15=DR Kitsch - Brian's Boogie
TTITLE16=Bobby Dirninger - Baby Please Don't Go
TTITLE17=Bill Deraim - Laisse Couler
EXTD=
EXTT0=
EXTT1=
EXTT2=
EXTT3=
EXTT4=
EXTT5=
EXTT6=
EXTT7=
EXTT8=
EXTT9=
EXTT10=
EXTT11=
EXTT12=
EXTT13=
EXTT14=
EXTT15=
EXTT16=
EXTT17=
PLAYORDER=
